<?xml version="1.0" encoding="UTF-8"?><svg id="Layer_2" xmlns="http://www.w3.org/2000/svg" viewBox="0 0 866.96 866.96"><defs><style>.cls-1{fill:#24cb71;}.cls-2{fill:#231f20;}.cls-3{fill:#00b6ff;}.cls-4{fill:#216bb4;}.cls-5{fill:#fff;}.cls-6{fill:#ff7237;}.cls-7{fill:#ff3737;}</style></defs><g id="Layer_1-2"><rect class="cls-2" width="866.96" height="866.96"/><path class="cls-5" d="M431.79,145.66c-158.29,0-286.62,128.33-286.62,286.62s128.33,286.64,286.62,286.64,286.64-128.33,286.64-286.64-128.33-286.62-286.64-286.62ZM431.79,658.73c-124.67,0-225.75-101.08-225.75-225.77s101.08-225.75,225.75-225.75,225.77,101.08,225.77,225.75-101.08,225.77-225.77,225.77Z"/><rect class="cls-5" x="353.74" y="358.14" width="59.86" height="59.86"/><rect class="cls-5" x="413.6" y="298.28" width="59.86" height="59.86"/><rect class="cls-4" x="353.74" y="298.28" width="59.86" height="59.86"/><rect class="cls-7" x="473.46" y="298.28" width="59.86" height="59.86"/><rect class="cls-6" x="353.74" y="418.01" width="59.86" height="59.86"/><rect class="cls-5" x="353.74" y="477.87" width="59.86" height="59.86"/><rect class="cls-1" x="353.74" y="537.73" width="59.86" height="59.86"/><rect class="cls-5" x="413.6" y="418.01" width="59.86" height="59.86"/><rect class="cls-3" x="473.46" y="418.01" width="59.86" height="59.86"/></g></svg>