<?xml version="1.0" encoding="UTF-8"?><svg id="Layer_2" xmlns="http://www.w3.org/2000/svg" viewBox="0 0 864.57 864.57"><defs><style>.cls-1{fill:#24cb71;}.cls-2{fill:#231f20;}.cls-3{fill:#00b6ff;}.cls-4{fill:#216bb4;}.cls-5{fill:#fff;}.cls-6{fill:#ff7237;}.cls-7{fill:#ff3737;}</style></defs><g id="Layer_1-2"><rect class="cls-5" width="864.57" height="864.57"/><path class="cls-2" d="M432.27,125.38c-158.29,0-286.62,128.33-286.62,286.62s128.33,286.64,286.62,286.64,286.64-128.33,286.64-286.64S590.59,125.38,432.27,125.38ZM432.27,638.45c-124.67,0-225.75-101.08-225.75-225.77s101.08-225.75,225.75-225.75,225.77,101.08,225.77,225.75-101.08,225.77-225.77,225.77Z"/><rect class="cls-2" x="351.25" y="330.39" width="61.28" height="61.28"/><rect class="cls-2" x="412.53" y="269.11" width="61.28" height="61.28"/><rect class="cls-4" x="351.25" y="269.11" width="61.28" height="61.28"/><rect class="cls-7" x="473.81" y="269.11" width="61.28" height="61.28"/><rect class="cls-6" x="351.25" y="391.67" width="61.28" height="61.28"/><rect class="cls-2" x="351.25" y="452.95" width="61.28" height="61.28"/><rect class="cls-1" x="351.25" y="514.23" width="61.28" height="61.28"/><rect class="cls-2" x="412.53" y="391.67" width="61.28" height="61.28"/><rect class="cls-3" x="473.81" y="391.67" width="61.28" height="61.28"/></g></svg>