<?xml version="1.0" encoding="UTF-8"?><svg id="Layer_2" xmlns="http://www.w3.org/2000/svg" viewBox="0 0 573.25 573.25"><defs><style>.cls-1{fill:#24cb71;}.cls-2{fill:#00b6ff;}.cls-3{fill:#216bb4;}.cls-4{fill:#fff;}.cls-5{fill:#ff7237;}.cls-6{fill:#ff3737;}</style></defs><g id="Layer_1-2"><path class="cls-4" d="M286.62,0C128.33,0,0,128.33,0,286.62s128.33,286.64,286.62,286.64,286.64-128.33,286.64-286.64S444.93,0,286.62,0ZM286.62,513.08c-124.67,0-225.75-101.08-225.75-225.77S161.94,61.55,286.62,61.55s225.77,101.08,225.77,225.75-101.08,225.77-225.77,225.77Z"/><rect class="cls-4" x="208.57" y="212.49" width="59.86" height="59.86"/><rect class="cls-4" x="268.43" y="152.62" width="59.86" height="59.86"/><rect class="cls-3" x="208.57" y="152.62" width="59.86" height="59.86"/><rect class="cls-6" x="328.29" y="152.62" width="59.86" height="59.86"/><rect class="cls-5" x="208.57" y="272.35" width="59.86" height="59.86"/><rect class="cls-4" x="208.57" y="332.21" width="59.86" height="59.86"/><rect class="cls-1" x="208.57" y="392.08" width="59.86" height="59.86"/><rect class="cls-4" x="268.43" y="272.35" width="59.86" height="59.86"/><rect class="cls-2" x="328.29" y="272.35" width="59.86" height="59.86"/></g></svg>