<?xml version="1.0" encoding="UTF-8"?><svg id="Layer_2" xmlns="http://www.w3.org/2000/svg" viewBox="0 0 529.98 471.26"><defs><style>.cls-1{fill:#24cb71;}.cls-2{fill:#00b6ff;}.cls-3{fill:#216bb4;}.cls-4{fill:#fff;}.cls-5{fill:#ff7237;}.cls-6{fill:#ff3737;}</style></defs><g id="Layer_1-2"><path class="cls-4" d="M0,342.01h86.72v26.29H28.48v26.29h53.86v26.29H28.48v50.39H0v-129.26Z"/><path class="cls-4" d="M108.26,342.01h28.48v102.97h52.76v26.29h-81.24v-129.26Z"/><path class="cls-4" d="M204.84,342.01h28.48v129.26h-28.48v-129.26Z"/><path class="cls-4" d="M259.24,342.01h38.7l54.95,89.82h.37v-89.82h28.48v129.26h-37.24l-56.41-92.01h-.37v92.01h-28.48v-129.26Z"/><path class="cls-4" d="M409.12,342.01h28.48v53.67l50.21-53.67h37.24l-57.51,60.06,62.44,69.19h-39.8l-52.58-61.34v61.34h-28.48v-129.26Z"/><path class="cls-4" d="M264.99,0c-73.53,0-133.14,59.61-133.14,133.14s59.61,133.14,133.14,133.14,133.14-59.61,133.14-133.14S338.52,0,264.99,0ZM264.99,238.33c-57.91,0-104.86-46.95-104.86-104.87s46.95-104.86,104.86-104.86,104.87,46.95,104.87,104.86-46.95,104.87-104.87,104.87Z"/><rect class="cls-4" x="223.28" y="91.75" width="27.81" height="27.81"/><rect class="cls-4" x="251.09" y="63.94" width="27.81" height="27.81"/><rect class="cls-3" x="223.28" y="63.94" width="27.81" height="27.81"/><rect class="cls-6" x="278.9" y="63.94" width="27.81" height="27.81"/><rect class="cls-5" x="223.28" y="119.56" width="27.81" height="27.81"/><rect class="cls-4" x="223.28" y="147.36" width="27.81" height="27.81"/><rect class="cls-1" x="223.28" y="175.17" width="27.81" height="27.81"/><rect class="cls-4" x="251.09" y="119.56" width="27.81" height="27.81"/><rect class="cls-2" x="278.9" y="119.56" width="27.81" height="27.81"/></g></svg>