<?xml version="1.0" encoding="UTF-8"?><svg id="Layer_2" xmlns="http://www.w3.org/2000/svg" viewBox="0 0 599.57 151.39"><defs><style>.cls-1{fill:#24cb71;}.cls-2{fill:#00b6ff;}.cls-3{fill:#216bb4;}.cls-4{fill:#fff;}.cls-5{fill:#ff7237;}.cls-6{fill:#ff3737;}</style></defs><g id="Layer_1-2"><rect class="cls-4" y="30.28" width="30.28" height="30.28"/><rect class="cls-4" x="30.28" width="30.28" height="30.28"/><rect class="cls-3" width="30.28" height="30.28"/><rect class="cls-6" x="60.55" width="30.28" height="30.28"/><rect class="cls-5" y="60.55" width="30.28" height="30.28"/><rect class="cls-4" y="90.83" width="30.28" height="30.28"/><rect class="cls-1" y="121.11" width="30.28" height="30.28"/><rect class="cls-4" x="30.28" y="60.55" width="30.28" height="30.28"/><rect class="cls-2" x="60.55" y="60.55" width="30.28" height="30.28"/><path class="cls-4" d="M127.02,0h26.94v127.01h64.36v24.38h-91.3V0Z"/><path class="cls-4" d="M237.35,0h26.94v151.39h-26.94V0Z"/><path class="cls-4" d="M297.44,0h35.71l73.34,112.47h.43V0h26.94v151.39h-34.21l-74.84-116.11h-.43v116.11h-26.94V0Z"/><path class="cls-4" d="M467.64,0h26.94v64.15h1.28L558.52,0h36.35l-70.77,69.92,75.48,81.47h-37.85l-65.64-74.41h-1.5v74.41h-26.94V0Z"/></g></svg>